<svg width="272" height="182" viewBox="0 0 272 182" fill="none" xmlns="http://www.w3.org/2000/svg">
<path d="M271.058 91.03C271.058 140.752 230.752 181.058 181.03 181.058C157.934 181.058 136.871 172.361 120.934 158.065C146.465 146.572 164.239 120.908 164.239 91.094C164.239 61.242 146.421 35.552 120.839 24.08C136.788 9.734 157.889 1.002 181.03 1.002C230.752 1.002 271.058 41.308 271.058 91.03Z" fill="white"/>
<path d="M145.043 19.167C125.984 4.78431 101.992 -1.4381 78.3449 1.86864C54.698 5.17537 33.3332 17.7404 18.9505 36.7995C4.56781 55.8586 -1.6546 79.8506 1.65214 103.498C4.95887 127.144 17.5239 148.509 36.583 162.892C55.6421 177.275 79.6341 183.497 103.281 180.19C126.928 176.884 148.293 164.319 162.676 145.259C177.058 126.2 183.281 102.208 179.974 78.5614C176.667 54.9145 164.102 33.5497 145.043 19.167V19.167ZM135.03 32.434C150.522 44.1786 160.723 61.5889 163.394 80.8452C166.065 100.101 160.988 119.631 149.278 135.149C137.568 150.667 120.18 160.906 100.93 163.62C81.6795 166.333 62.1388 161.3 46.595 149.624C31.103 137.879 20.9024 120.469 18.2312 101.213C15.5601 81.9566 20.6365 62.4271 32.3469 46.9091C44.0572 31.3911 61.4449 21.1521 80.6952 18.4384C99.9455 15.7247 119.486 20.758 135.03 32.434V32.434Z" fill="white"/>
<path d="M93.225 59.882C93.117 60.148 91.74 65.554 90.258 71.966C88.72 78.379 86.282 88.501 84.907 94.49C82.254 105.459 80.664 112.667 80.664 113.622C80.664 113.885 82.308 114.099 84.321 114.099H87.979L89.62 106.784C90.576 102.81 92.696 93.694 94.391 86.54C96.088 79.385 98.153 70.693 98.95 67.195C99.743 63.696 100.538 60.519 100.699 60.148C100.858 59.671 99.955 59.513 97.2 59.513C95.132 59.513 93.329 59.671 93.225 59.882V59.882ZM64.764 82.829L59.889 88.13L61.321 89.825C62.113 90.778 64.289 93.164 66.143 95.126L69.535 98.728H79.181L74.624 93.799C72.131 91.152 70.064 88.606 70.064 88.289C70.064 87.918 71.973 85.534 74.305 82.99C76.636 80.394 78.545 78.166 78.545 77.901C78.545 77.689 76.531 77.53 74.094 77.53H69.695L64.764 82.829ZM101.862 77.847C101.862 78.008 102.764 79.013 103.875 80.127C108.012 84.26 110.926 87.76 110.767 88.447C110.661 88.82 108.646 91.308 106.21 93.905L101.812 98.728H106.739L111.668 98.676L116.171 93.748C118.664 90.994 120.677 88.552 120.677 88.235C120.677 87.972 118.558 85.48 115.907 82.673L111.139 77.53H106.526C103.929 77.53 101.862 77.689 101.862 77.847V77.847Z" fill="white"/>
</svg>
